# xmcd
#
# Track frame offsets:
#	225
#	12079
#	25636
#	44289
#	54849
#	63752
#	78598
#	92375
#	107930
#	131925
#	156975
#	176242
#
# Disc length: 2493 seconds
#
# Revision: 1
# Processed by: cddbd v1.5.2PL0 Copyright (c) Steve Scherf et al.
# Submitted via: audiograbber 1.83.01
#
DISCID=9309ba0c
DTITLE=Steve Harrison and New Cross Country - On The Road
DYEAR=1998
DGENRE=Country
TTITLE0=On The Road Again
TTITLE1=King Of The Road
TTITLE2=Luckenbach, Texas
TTITLE3=San Antonio Rose
TTITLE4=Rawhide
TTITLE5=Green, Green Grass Of Home
TTITLE6=Help Me Make It Through The Night
TTITLE7=Crazy
TTITLE8=Amanda
TTITLE9=City Of New Orleans
TTITLE10=Country Roads
TTITLE11=Last Date
EXTD=
EXTT0=
EXTT1=
EXTT2=
EXTT3=
EXTT4=
EXTT5=
EXTT6=
EXTT7=
EXTT8=
EXTT9=
EXTT10=
EXTT11=
PLAYORDER=
